<?xml version="1.0" standalone="no"?>
<!DOCTYPE svg PUBLIC "-//W3C//DTD SVG 20010904//EN"
 "http://www.w3.org/TR/2001/REC-SVG-20010904/DTD/svg10.dtd">
<svg version="1.0" xmlns="http://www.w3.org/2000/svg"
 width="512.000000pt" height="512.000000pt" viewBox="0 0 512.000000 512.000000"
 preserveAspectRatio="xMidYMid meet">

<g transform="translate(0.000000,512.000000) scale(0.100000,-0.100000)"
fill="#000000" stroke="none">
<path d="M2390 5030 c-490 -34 -827 -215 -931 -501 -14 -37 -29 -61 -46 -70
-34 -18 -97 -91 -132 -153 -80 -141 -115 -309 -114 -546 0 -185 19 -299 74
-457 33 -93 97 -223 134 -269 l22 -27 6 164 c11 274 41 471 98 652 49 152 25
145 284 92 343 -68 645 -113 970 -141 206 -18 633 -15 730 5 120 25 113 26
124 -16 23 -89 83 -451 99 -597 l18 -159 37 109 c64 189 98 367 112 594 31
486 -228 927 -685 1164 -248 129 -494 177 -800 156z"/>
<path d="M1932 3424 c-96 -25 -175 -75 -170 -107 6 -42 31 -43 107 -3 119 63
236 59 363 -12 54 -30 83 -24 83 19 0 19 -12 31 -61 56 -114 60 -217 76 -322
47z"/>
<path d="M2981 3425 c-29 -8 -81 -30 -115 -48 -49 -25 -61 -37 -61 -56 0 -43
29 -49 83 -19 127 71 244 75 363 12 76 -40 101 -39 107 4 2 15 -8 28 -36 47
-98 64 -237 89 -341 60z"/>
<path d="M1995 3071 c-11 -5 -31 -21 -45 -36 -35 -37 -35 -112 -2 -148 54 -57
127 -59 178 -6 24 25 29 39 29 79 0 42 -5 54 -31 81 -33 33 -92 46 -129 30z"/>
<path d="M3035 3071 c-11 -5 -31 -21 -45 -36 -35 -37 -35 -112 -2 -148 54 -57
127 -59 178 -6 24 25 29 39 29 79 0 42 -5 54 -31 81 -33 33 -92 46 -129 30z"/>
<path d="M1863 1975 c-142 -44 -264 -183 -293 -335 -5 -29 -10 -104 -10 -166
l0 -114 -27 -6 c-188 -41 -312 -156 -358 -329 -24 -94 -22 -105 23 -105 l37 0
12 60 c22 119 99 217 206 266 218 97 471 -42 503 -278 l7 -48 40 0 40 0 -7 51
c-24 177 -167 342 -326 374 -78 15 -72 1 -68 163 3 136 5 151 30 202 53 108
166 193 273 206 82 9 84 13 30 44 -57 34 -55 33 -112 15z"/>
<path d="M3135 1955 l-60 -35 55 0 c193 -1 391 -123 482 -296 59 -113 68 -166
68 -431 l0 -233 41 0 41 0 -4 258 c-4 251 -4 259 -32 337 -70 202 -210 343
-408 409 -42 14 -87 26 -100 26 -13 0 -50 -16 -83 -35z"/>
<path d="M3652 864 c-107 -55 -121 -198 -26 -271 96 -73 238 -10 251 111 14
119 -120 214 -225 160z"/>
<path d="M1400 400 l0 -41 51 3 c96 6 96 70 0 76 l-51 3 0 -41z"/>
<path d="M1652 428 c-7 -7 -12 -19 -12 -28 0 -28 22 -40 72 -40 l48 0 0 40 0
40 -48 0 c-26 0 -53 -5 -60 -12z"/>
</g>
</svg>
